<svg width="512" height="512" viewBox="0 0 512 512" fill="none" xmlns="http://www.w3.org/2000/svg">
<path d="M245.271 346.259C228.768 343.67 212.836 338.25 198.178 330.237C188.983 336.127 179.188 341.024 168.959 344.846C156.984 349.364 144.508 352.422 131.801 353.953C125.592 354.632 119.34 354.827 113.101 354.537C107.588 354.18 102.115 353.366 96.7376 352.103C89.3438 350.501 81.6316 351.303 74.7255 354.391C62.1124 361.16 43.217 386.581 49.1097 399.632C60.8949 425.881 96.2019 402.554 101.121 399.048C104.378 396.642 107.279 393.79 109.74 390.574C109.74 390.574 125.178 392.815 132.921 393.107C166.021 393.758 198.786 386.389 228.421 371.631C236.225 367.626 243.685 362.984 250.725 357.752C254.428 355.07 257.973 352.175 261.341 349.083L262.072 348.401C256.277 347.817 250.579 347.135 245.271 346.259Z" fill="#E8436E"/>
<path d="M442.715 109.389C436.838 109.389 431.202 111.724 427.046 115.879C422.891 120.034 420.556 125.67 420.556 131.547C420.587 133.732 420.949 135.899 421.628 137.975C419.047 139.193 416.417 140.313 413.738 141.384C403.28 145.337 392.445 148.209 381.402 149.955C370.543 151.752 359.525 152.405 348.53 151.903C343.393 151.615 338.283 150.964 333.238 149.955C330.852 149.419 328.368 148.835 326.372 148.153L324.765 147.569C331.178 150.612 336.586 155.428 340.348 161.448C345.382 171.91 348.798 183.076 350.478 194.563C363.945 193.282 377.244 190.622 390.168 186.625C403.227 182.658 415.842 177.355 427.812 170.798C433.977 167.563 439.83 163.764 445.296 159.451C457.13 149.712 464.775 141.969 464.775 131.547C464.775 125.687 462.454 120.066 458.32 115.913C454.185 111.761 448.574 109.415 442.715 109.389Z" fill="#E8436E"/>
<path d="M372.394 79.0023C372.302 77.4744 371.852 75.9895 371.079 74.6682C368.531 69.0912 367.235 63.0243 367.281 56.8931C366.307 22.3171 325.935 1.62018 291.943 12.2852C276.902 16.1599 264.017 25.8506 256.121 39.2256C248.226 52.6005 245.967 68.564 249.842 83.6044C253.717 98.6447 263.408 111.53 276.783 119.425C290.158 127.32 306.122 129.579 321.162 125.704C349.359 120.494 361.631 108.173 366.307 86.7454C370.056 84.7488 372.735 83.4339 372.394 79.0023Z" fill="#E8436E"/>
<path d="M155.496 27.1365C140.059 21.0492 125.254 24.6042 117.559 37.9476C109.865 51.291 117.559 69.1147 129.54 76.176C141.52 83.2373 162.509 85.9158 168.499 85.9158C192.16 85.6975 215.467 80.1374 236.678 69.6504C241.476 67.0991 246.082 64.202 250.46 60.9821C249.948 68.0541 250.606 75.1621 252.408 82.0199C254.275 89.9007 257.868 97.269 262.927 103.593C269.648 101.012 292.147 96.6295 289.858 77.637C288.592 67.8973 291.66 62.0047 304.127 63.0274C312.741 62.0306 321.198 59.9695 329.304 56.8914C340.88 52.8299 352.748 49.6553 364.806 47.3951C366.416 46.8164 367.876 45.8859 369.08 44.6712C370.284 43.4565 371.202 41.9884 371.766 40.3739C372.331 38.7595 372.528 37.0394 372.343 35.339C372.159 33.6387 371.597 32.001 370.699 30.5454C365.551 22.3122 358.624 15.3368 350.427 10.1313C342.23 4.92589 332.971 1.62268 323.33 0.464289C313.689 -0.694097 303.911 0.321768 294.714 3.43728C285.517 6.55279 277.135 11.6888 270.183 18.4681C268.448 14.9168 265.874 11.8414 262.684 9.50758C251.678 1.47231 236.873 7.21874 228.204 14.9131C219.536 22.6075 200.397 28.5001 192.849 29.5227C180.432 32.3887 167.448 31.5592 155.496 27.1365Z" fill="#5F1546"/>
<path d="M420.861 462.645C413.41 445.941 399.385 448.035 387.015 453.198C386.333 448.328 385.603 443.458 384.775 438.588C383.411 430.699 379.418 408.687 374.645 391.545C370.141 374.756 363.599 358.582 355.166 343.382C353.218 343.869 351.123 344.356 348.786 344.794C329.471 348 309.926 349.629 290.347 349.664L292.587 351.271C294.884 353.08 297.079 355.014 299.161 357.066C303.775 361.371 307.936 366.135 311.58 371.286C325.849 392.275 338.51 423.637 346.351 448.084C349.973 458.364 352.838 468.894 354.922 479.592C355.141 486.358 356.801 492.999 359.792 499.072C361.482 502.051 363.755 504.66 366.475 506.743C369.195 508.826 372.307 510.339 375.624 511.194C378.942 512.048 382.397 512.226 385.785 511.716C389.173 511.206 392.423 510.02 395.342 508.227C407.566 500.581 426.754 475.696 420.861 462.645Z" fill="#E8436E"/>
<path d="M232.211 223.143C208.397 261.42 191.157 269.991 168.804 280.9C150.883 289.617 177.765 335.101 245.262 346.302C279.698 350.817 314.609 350.292 348.894 344.744C371.832 340.507 376.409 332.861 364.478 300.915C352.547 268.969 359.365 197.528 340.372 161.442C329.561 140.696 271.073 126.671 253.297 144.203C241.658 155.696 254.856 186.619 232.211 223.143Z" fill="#5F1546"/>
<path d="M289.854 138.41C281.822 135.589 273.423 133.949 264.92 133.541C257.664 133.254 250.398 133.352 243.152 133.833C229.368 135.071 215.753 137.764 202.536 141.868C189.48 145.843 176.866 151.147 164.892 157.695C158.82 161.087 152.979 164.878 147.409 169.042C138.886 175.421 127.929 183.651 127.929 196.946C127.793 199.889 128.267 202.827 129.321 205.578C130.375 208.329 131.986 210.832 134.052 212.931C136.119 215.029 138.597 216.678 141.331 217.774C144.066 218.87 146.997 219.389 149.941 219.299C155.818 219.299 161.454 216.964 165.609 212.809C169.765 208.654 172.099 203.018 172.099 197.141C172.068 194.957 171.707 192.789 171.028 190.713C173.609 189.495 176.239 188.375 178.917 187.304C189.404 183.314 200.272 180.41 211.351 178.636C222.194 176.839 233.195 176.186 244.174 176.688C249.311 176.973 254.421 177.624 259.466 178.636C263.301 179.415 267.04 180.606 270.618 182.191C276.448 184.635 283.001 184.717 288.891 182.418C294.78 180.118 299.544 175.618 302.175 169.87C304.694 164.062 304.812 157.493 302.504 151.599C300.195 145.704 295.648 140.963 289.854 138.41Z" fill="#E8436E"/>
</svg>
